<?xml version="1.0" standalone="no"?>
<!DOCTYPE svg PUBLIC "-//W3C//DTD SVG 20010904//EN"
 "http://www.w3.org/TR/2001/REC-SVG-20010904/DTD/svg10.dtd">
<svg version="1.0" xmlns="http://www.w3.org/2000/svg"
 width="307.853906pt" height="268.667266pt" viewBox="0 0 307.853906 268.667266"
 preserveAspectRatio="xMidYMid meet">
<metadata>
Created by potrace 1.12, written by Peter Selinger 2001-2015
</metadata>
<g transform="translate(-11.314198,301.031544) scale(0.100000,-0.100000)"
fill="#000000" stroke="none">
<path d="M319 2981 c-122 -39 -156 -63 -186 -128 -23 -50 -24 -58 -13 -99 11
-39 19 -48 61 -70 41 -20 70 -25 192 -33 98 -6 157 -14 183 -26 127 -56 161
-79 266 -177 48 -45 50 -49 45 -90 -5 -44 -33 -134 -49 -154 -4 -6 -43 -14
-86 -17 -178 -12 -337 -128 -439 -317 -30 -57 -59 -139 -88 -252 -25 -96 -14
-119 68 -144 85 -26 206 -24 268 3 64 28 203 118 266 171 l52 43 6 -48 c3 -26
13 -68 21 -93 8 -25 21 -65 28 -90 7 -25 32 -86 55 -134 22 -49 41 -92 41 -97
0 -5 21 -43 48 -84 26 -42 52 -85 57 -95 18 -30 78 -93 125 -130 24 -19 60
-53 80 -74 19 -22 41 -44 48 -50 38 -32 50 -51 55 -89 13 -87 27 -116 88 -177
32 -33 63 -60 68 -60 5 0 24 -20 42 -44 50 -65 100 -92 186 -100 58 -5 75 -3
87 10 21 21 21 26 -13 87 -47 86 -64 151 -57 220 9 87 24 122 60 140 55 26
271 193 271 209 0 5 5 12 10 16 31 22 165 213 165 235 0 4 11 24 24 45 12 20
24 42 25 47 0 6 10 37 21 70 22 67 60 244 60 281 0 29 14 38 32 21 28 -27 255
-173 288 -184 98 -34 232 -37 292 -7 49 25 58 113 22 215 -17 51 -92 150 -182
243 -59 61 -101 92 -180 137 -57 32 -123 61 -145 64 -59 10 -84 37 -92 98 -4
29 -14 69 -22 90 l-16 38 45 57 c33 43 62 66 118 96 l75 40 175 6 c150 5 182
9 222 27 141 64 132 155 -25 275 -47 36 -121 66 -215 88 -61 14 -189 6 -237
-15 -16 -7 -52 -20 -80 -30 -67 -23 -135 -61 -240 -135 l-88 -62 -106 55
c-137 71 -169 81 -332 106 -151 22 -203 19 -324 -19 -94 -30 -211 -81 -277
-121 -37 -22 -39 -22 -70 -6 -18 10 -46 26 -63 37 -115 74 -260 141 -369 170
-43 11 -87 25 -97 30 -36 20 -160 10 -250 -19z m325 -106 c123 -32 266 -120
394 -241 42 -41 82 -74 89 -74 7 0 27 13 45 28 92 79 232 154 344 182 151 39
334 21 466 -46 59 -30 186 -110 206 -131 17 -16 20 -14 145 78 43 32 103 72
133 89 l54 31 40 -41 c22 -22 40 -47 40 -55 0 -8 -30 -34 -67 -59 l-68 -44
-30 34 c-17 19 -44 36 -62 40 -38 8 -46 -12 -10 -25 12 -5 35 -21 50 -37 l29
-29 -79 -72 -78 -71 17 -29 c53 -85 78 -171 78 -262 0 -26 5 -52 12 -59 7 -7
40 -12 78 -12 168 0 255 -42 386 -188 104 -116 147 -191 142 -248 -3 -37 -5
-39 -40 -42 -85 -7 -209 58 -348 182 -56 50 -97 98 -70 81 9 -5 11 -4 6 3 -4
7 -17 12 -29 13 -14 0 -7 6 22 16 33 12 51 13 77 5 20 -6 34 -6 34 -1 0 5 -4
9 -10 9 -5 0 -10 4 -10 9 0 25 100 -24 137 -67 13 -16 27 -23 37 -19 46 18
-12 88 -99 121 -45 18 -56 18 -125 6 -88 -16 -95 -16 -138 -6 -30 7 -33 6 -38
-23 -4 -17 -11 -34 -15 -37 -5 -3 -9 -15 -9 -27 0 -12 -11 -71 -24 -130 -80
-353 -229 -597 -480 -787 -32 -24 -62 -55 -68 -69 -5 -15 -18 -44 -28 -66 -36
-75 -46 -123 -44 -209 1 -65 7 -95 23 -126 11 -22 21 -43 21 -46 0 -10 -43 8
-80 35 -52 36 -74 100 -67 187 3 35 8 68 11 73 3 5 -3 11 -14 14 -27 7 -32 -5
-36 -86 -2 -38 -5 -71 -7 -73 -2 -3 -17 12 -33 33 -25 32 -29 47 -29 98 1 36
7 73 18 94 28 55 23 66 -55 118 -75 50 -201 168 -258 241 -83 106 -173 276
-217 407 -59 175 -74 243 -69 298 8 72 -4 83 -68 62 -43 -15 -50 -15 -112 5
-36 11 -78 20 -93 20 -71 0 -161 -51 -161 -91 0 -32 29 -35 53 -7 28 33 130
68 112 38 -3 -5 -2 -10 4 -10 5 0 12 6 14 13 3 7 6 5 6 -6 1 -14 5 -16 20 -7
27 14 34 13 28 -4 -4 -11 -1 -13 11 -9 13 5 15 3 5 -7 -9 -10 -8 -16 3 -28 8
-8 16 -13 17 -11 2 2 9 13 17 24 12 17 12 18 0 8 -20 -18 -35 -16 -20 2 14 17
20 18 39 6 11 -7 5 -18 -25 -51 -94 -103 -288 -204 -429 -225 -41 -7 -45 -5
-45 13 0 33 47 147 92 222 98 165 250 250 445 250 l83 0 0 48 c0 72 26 181 58
243 l29 56 -53 53 c-28 28 -54 63 -57 76 -4 24 26 76 60 102 12 8 14 15 7 22
-19 19 -45 -2 -70 -56 l-25 -54 -52 43 c-29 23 -63 49 -76 57 -29 19 -23 50
17 87 19 17 23 26 14 35 -18 18 -38 3 -61 -46 l-21 -46 -48 24 c-26 14 -59 30
-74 35 -35 13 -35 21 2 61 32 34 31 50 0 50 -24 0 -46 -35 -49 -78 -1 -17 -7
-17 -66 -8 -70 10 -77 19 -45 56 14 17 17 27 10 34 -16 16 -43 -5 -54 -42 -10
-33 -28 -42 -89 -42 -45 0 -62 25 -31 46 10 7 24 18 30 23 46 38 243 53 348
26z m2249 -36 c72 -21 147 -75 133 -97 -4 -7 -27 -12 -50 -12 -41 0 -43 1 -38
25 3 16 -2 33 -13 45 -28 31 -37 24 -29 -25 l6 -45 -55 0 -54 0 -7 42 c-8 48
-22 69 -41 62 -11 -5 -11 -12 1 -47 8 -22 11 -44 7 -48 -5 -3 -33 -15 -62 -24
l-55 -18 -15 23 c-8 12 -29 37 -47 55 l-32 33 48 21 c104 45 176 47 303 10z"/>
<path d="M2225 1905 c-198 -43 -341 -148 -415 -304 -41 -85 -62 -170 -64 -256
-1 -64 1 -70 20 -73 32 -5 159 43 242 91 173 98 291 273 317 465 6 43 4 57
-11 73 -9 10 -20 19 -23 18 -3 0 -33 -7 -66 -14z"/>
<path d="M1045 1857 c-16 -86 50 -291 126 -390 87 -114 266 -197 424 -197 64
0 66 5 40 105 -48 181 -163 335 -315 421 -63 36 -182 83 -229 90 -39 6 -40 6
-46 -29z"/>
</g>
</svg>
